<svg width="18" height="18" viewBox="0 0 18 18" fill="none" xmlns="http://www.w3.org/2000/svg">
<path d="M6.54552 2.18182H3.63643C2.83311 2.18182 2.18188 2.83304 2.18188 3.63636V6.54545C2.18188 7.34878 2.83311 8 3.63643 8H6.54552C7.34884 8 8.00007 7.34878 8.00007 6.54545V3.63636C8.00007 2.83304 7.34884 2.18182 6.54552 2.18182Z" stroke="white" stroke-width="1.45455" stroke-linecap="round" stroke-linejoin="round"/>
<path d="M5.09082 8V10.9091C5.09082 11.2949 5.24407 11.6648 5.51685 11.9376C5.78963 12.2104 6.1596 12.3636 6.54537 12.3636H9.45446" stroke="white" stroke-width="1.45455" stroke-linecap="round" stroke-linejoin="round"/>
<path d="M13.8182 9.45454H10.9091C10.1058 9.45454 9.45459 10.1058 9.45459 10.9091V13.8182C9.45459 14.6215 10.1058 15.2727 10.9091 15.2727H13.8182C14.6215 15.2727 15.2728 14.6215 15.2728 13.8182V10.9091C15.2728 10.1058 14.6215 9.45454 13.8182 9.45454Z" stroke="white" stroke-width="1.45455" stroke-linecap="round" stroke-linejoin="round"/>
</svg>
